# xmcd
#
# Track frame offsets: 
#        150
#        15691
#        40068
#        61238
#        79730
#        98043
#        120952
#        140355
#        162117
#        179355
#
# Disc length: 2825 seconds
#
# Revision: 0
# Processed by: cddbd v1.5.2PL0 Copyright (c) Steve Scherf et al.
# Submitted via: ExactAudioCopy v0.95b3
#
DISCID=710b070a
DTITLE=CREE - Tacy Sami
DYEAR=2007
DGENRE=Rock
TTITLE0=01- Ballada Dla Mi³osci
TTITLE1=02- Rozkoszny Deszcz
TTITLE2=03- Swe Drugie Ja
TTITLE3=04- To Co Chcia³es
TTITLE4=05- Wszystko Co Mam ...Dla Ciebie
TTITLE5=06- Przywiazanie
TTITLE6=07- Sam Sam Sam 
TTITLE7=08- Tacy Sami Tacy Mali
TTITLE8=09- Nagle Ktos
TTITLE9=10- Chcia³em Tak i Mam
EXTD=
EXTT0=
EXTT1=
EXTT2=
EXTT3=
EXTT4=
EXTT5=
EXTT6=
EXTT7=
EXTT8=
EXTT9=
PLAYORDER=
